# Blender 3.1.0
# www.blender.org
mtllib star.mtl
o Cube
v -1.000000 0.000000 0.000000
v 0.000000 0.000000 -1.000000
v 1.000000 0.000000 0.000000
v 0.000000 0.000000 1.000000
v 0.000000 -1.000000 0.000000
v 0.000000 1.000000 0.000000
vn -0.5774 -0.5774 0.5774
vn -0.5774 0.5774 0.5774
vn -0.5774 -0.5774 -0.5774
vn -0.5774 0.5774 -0.5774
vn 0.5774 -0.5774 0.5774
vn 0.5774 0.5774 0.5774
vn 0.5774 -0.5774 -0.5774
vn 0.5774 0.5774 -0.5774
s 0
f 1//1 5//1 4//1
f 1//2 4//2 6//2
f 1//3 2//3 5//3
f 1//4 6//4 2//4
f 3//5 4//5 5//5
f 3//6 6//6 4//6
f 2//7 3//7 5//7
f 2//8 6//8 3//8
